<svg width="12px" height="12px" viewBox="0 0 476 476" fill="none" xmlns="http://www.w3.org/2000/svg">
  <path d="M85.3553 14.6447C65.8291 -4.88155 34.1709 -4.88155 14.6447 14.6447C-4.88155 34.1709 -4.88155 65.8291 14.6447 85.3553L85.3553 14.6447ZM390.645 461.355C410.171 480.882 441.829 480.882 461.355 461.355C480.882 441.829 480.882 410.171 461.355 390.645L390.645 461.355ZM14.6447 85.3553L390.645 461.355L461.355 390.645L85.3553 14.6447L14.6447 85.3553Z" fill="#FFFFFF"/>
  <path d="M14.6447 390.645C-4.88155 410.171 -4.88155 441.829 14.6447 461.355C34.1709 480.882 65.8291 480.882 85.3553 461.355L14.6447 390.645ZM461.355 85.3553C480.882 65.8291 480.882 34.1709 461.355 14.6447C441.829 -4.88156 410.171 -4.88153 390.645 14.6447L461.355 85.3553ZM85.3553 461.355L461.355 85.3553L390.645 14.6447L14.6447 390.645L85.3553 461.355Z" fill="#FFFFFF"/>
</svg>
